# xmcd
#
# Track frame offsets:
#	200
#	12270
#	26467
#	41740
#	55270
#	65912
#	78862
#	95857
#	106495
#	126760
#	134785
#	143237
#
# Disc length: 2094 seconds
#
# Revision: 2
# Processed by: cddbd v1.4PL0 Copyright (c) Steve Scherf et al.
# Submitted via: EasyCDDAExtractor 4.5.0.2
#
DISCID=b0082c0c
DTITLE=David Grier - Freewheeling
DYEAR=1988
DGENRE=Bluegrass
TTITLE0=Wheeling
TTITLE1=Shadowbrook
TTITLE2=Old Hotel Rag
TTITLE3=Angeline the Baker
TTITLE4=Bluegrass Itch
TTITLE5=Alabama Jubilee
TTITLE6=A Blue Midnite Star
TTITLE7=Roanoke
TTITLE8=If I Knew Her Name
TTITLE9=Gold Rush
TTITLE10=Fog Rolling Over the Glen
TTITLE11=New Soldier's Joy
EXTD=
EXTT0=
EXTT1=
EXTT2=
EXTT3=
EXTT4=
EXTT5=
EXTT6=
EXTT7=
EXTT8=
EXTT9=
EXTT10=
EXTT11=
PLAYORDER=
